<?xml version="1.0" encoding="utf-8"?>
<!-- Generator: Adobe Illustrator 19.2.1, SVG Export Plug-In . SVG Version: 6.00 Build 0)  -->
<svg version="1.1" id="Layer_1" xmlns="http://www.w3.org/2000/svg" xmlns:xlink="http://www.w3.org/1999/xlink" x="0px" y="0px"
	 viewBox="0 0 330 45" style="enable-background:new 0 0 330 45;" xml:space="preserve">
<style type="text/css">
	.st0{fill:#FFFFFF;}
	.st1{fill-rule:evenodd;clip-rule:evenodd;fill:#472D8B;}
</style>
<g>
	<path class="st0" d="M21.7,9.6c-1-4-3.7-7.1-8.4-7.1c-1.9,0-4.1,0.8-5.7,2.3c-1.5,1.5-3.2,3.9-3.2,9.4c0,8.1,4.5,11.4,9.3,11.4
		c4.7,0,7.4-2.7,8.6-3.9l0.7,0.7c0,0.1-3.3,4.8-10.3,4.8C6.6,27.3,0,23.7,0,14.2C0,5.6,6.4,1,13,1c3.4,0,5.9,1.3,6.7,1.3
		c0.2,0,1.5,0,1.8-1.3h0.8l0.3,8.6H21.7z"/>
	<path class="st0" d="M32.1,4.3c0-1.1,0.3-1.4,2.4-1.4C36,3,41,3.1,41,8.2c0,5.5-5.7,5.5-8.9,5.6V4.3z M49.4,26.1
		c-1.6-0.1-2.5-0.8-3.3-1.8l-7.9-9.6c1.9-0.4,6.9-1.3,6.9-6.4c0-5.9-6.3-6.7-9.7-6.7H24.9v0.7c2.7,0.3,3.2,0.6,3.2,3.4v16.6
		c0,2.9-0.2,3.7-3.2,3.8v0.7h10.6v-0.7c-3.1-0.2-3.4-0.9-3.4-3.4v-7.5l2.1-0.1l9.1,11.7h6.1V26.1z"/>
	<path class="st0" d="M61.9,26c-4.2,0-8.1-3.4-8.1-11.8c0-8.7,4.2-11.8,8.1-11.8c3.9,0,8.1,3.1,8.1,11.8C70.1,22.6,66.2,26,61.9,26z
		 M61.9,27.3c6.9,0,12.5-5,12.5-13.1C74.4,5.4,68.2,1,61.9,1c-6.3,0-12.5,4.4-12.5,13.2C49.5,22.3,55,27.3,61.9,27.3z"/>
	<path class="st0" d="M109.9,2.2c-1.9,0.3-2.5,0.8-3,2.3c-2.6,7.1-5.7,15.3-7.9,22.7h-0.6c-1.3-4-4.5-12-6.1-16.2l-5.9,16.2h-0.6
		c-1.9-5.8-5.9-16.7-7.4-20.5c-1.2-3.2-1.8-4.3-3.9-4.5V1.5h9.4v0.7c-1.7,0.1-2.5,0.3-2.5,1.3c0,0.5,0.2,1.2,0.4,1.7l5.5,14.4
		l4.1-10.8l-1.3-3.1c-1.3-3.2-1.8-3.4-3.9-3.4V1.5h10.2v0.7c-1.2,0-2.9,0.1-2.9,1.5c0,0.6,0.5,1.5,1,3l5,13l4.8-13
		c0.3-0.8,0.6-1.9,0.6-2.8c0-1.5-1.3-1.6-2.6-1.8V1.5h7.6V2.2z"/>
	<path class="st0" d="M137.1,2.2c-2.4,0.3-3.6,0.4-3.6,4.9v20.1h-0.6L116.1,6.3H116v14.9c0,3.9,0.8,4.8,3.6,4.9v0.7h-9v-0.7
		c2.9-0.2,3.7-0.8,3.7-4.9V4.3c-1.6-1.9-2.2-2.1-3.7-2.1V1.5h6.5l14.6,18.4h0.1V7.1c0-4.4-1.1-4.7-3.7-4.9V1.5h9V2.2z"/>
</g>
<g>
	<g>
		<path class="st0" d="M155,43c1,0,1.2-0.2,1.2-1.1v-5.3c0-0.9-0.2-1-1.2-1.1v-0.2h3.5v0.2c-0.9,0-1.2,0.1-1.2,1.1V42
			c0,0.9,0.3,1.1,1.2,1.1v0.2H155V43z"/>
		<path class="st0" d="M173.8,35.5c-0.7,0.1-1.1,0.1-1.1,1.5v6.3h-0.2l-5.2-6.6h0v4.7c0,1.2,0.2,1.5,1.1,1.5v0.2h-2.8V43
			c0.9-0.1,1.1-0.2,1.1-1.5v-5.3c-0.5-0.6-0.7-0.7-1.1-0.7v-0.2h2l4.5,5.8h0v-4c0-1.4-0.3-1.5-1.1-1.5v-0.2h2.8V35.5z"/>
		<path class="st0" d="M187.8,37.9c-0.3-1.3-1.2-2.2-2.6-2.2c-0.6,0-1.3,0.2-1.8,0.7c-0.5,0.5-1,1.2-1,2.9c0,2.5,1.4,3.6,2.9,3.6
			c1.5,0,2.3-0.9,2.7-1.2l0.2,0.2c0,0-1,1.5-3.2,1.5c-1.9,0-4-1.1-4-4.1c0-2.7,2-4.1,4-4.1c1.1,0,1.8,0.4,2.1,0.4
			c0.1,0,0.4,0,0.5-0.4h0.2l0.1,2.7H187.8z"/>
		<path class="st0" d="M199.6,43c-1.3,0-2.5-1.1-2.5-3.7c0-2.7,1.3-3.7,2.5-3.7c1.2,0,2.5,1,2.5,3.7C202.1,41.9,200.9,43,199.6,43z
			 M199.6,43.4c2.2,0,3.9-1.6,3.9-4.1c0-2.7-1.9-4.1-3.9-4.1c-1.9,0-3.9,1.4-3.9,4.1C195.7,41.9,197.4,43.4,199.6,43.4z"/>
		<path class="st0" d="M213,36.2c0-0.4,0.1-0.4,0.7-0.4c0.5,0,2,0,2,1.6c0,1.7-1.8,1.7-2.8,1.8V36.2z M218.4,43
			c-0.5,0-0.8-0.2-1-0.6l-2.4-3c0.6-0.1,2.1-0.4,2.1-2c0-1.9-2-2.1-3-2.1h-3.3v0.2c0.8,0.1,1,0.2,1,1.1v5.2c0,0.9,0,1.1-1,1.2v0.2
			h3.3V43c-1,0-1.1-0.3-1.1-1.1v-2.4l0.7,0l2.8,3.7h1.9V43z"/>
		<path class="st0" d="M227.6,36.2c0-0.4,0.1-0.4,0.5-0.4c0.5,0,2.3,0,2.3,1.7c0,1.8-1.6,1.8-2,1.8c-0.3,0-0.5,0-0.7,0V36.2z
			 M225.4,35.5c0.9,0.1,1,0.2,1,1.1v5.2c0,0.9,0,1.1-1,1.2v0.2h3.3V43c-0.9,0-1.1-0.2-1.1-1.1v-2.2c0.3,0,0.5,0,0.8,0
			c1.2,0,2-0.2,2.5-0.7c0.2-0.2,0.7-0.7,0.7-1.6c0-1.5-1.5-2.2-3.1-2.2h-3.1V35.5z"/>
		<path class="st0" d="M242.8,43c-1.3,0-2.5-1.1-2.5-3.7c0-2.7,1.3-3.7,2.5-3.7c1.2,0,2.5,1,2.5,3.7C245.3,41.9,244.1,43,242.8,43z
			 M242.8,43.4c2.1,0,3.9-1.6,3.9-4.1c0-2.7-1.9-4.1-3.9-4.1c-2,0-3.9,1.4-3.9,4.1C238.9,41.9,240.6,43.4,242.8,43.4z"/>
		<path class="st0" d="M256.2,36.2c0-0.4,0.1-0.4,0.7-0.4c0.5,0,2,0,2,1.6c0,1.7-1.8,1.7-2.8,1.8V36.2z M261.6,43
			c-0.5,0-0.8-0.2-1-0.6l-2.4-3c0.6-0.1,2.1-0.4,2.1-2c0-1.9-2-2.1-3-2.1H254v0.2c0.8,0.1,1,0.2,1,1.1v5.2c0,0.9,0,1.1-1,1.2v0.2
			h3.3V43c-0.9,0-1.1-0.3-1.1-1.1v-2.4l0.7,0l2.8,3.7h1.9V43z"/>
	</g>
	<g>
		<path class="st0" d="M270.3,40.2l1.4-3.3l1.4,3.3H270.3z M276.1,43c-0.5,0-0.7-0.2-1.1-1l-3-6.8h-0.2l-2.5,5.9
			c-0.2,0.5-0.6,1.4-0.9,1.7c-0.2,0.2-0.4,0.3-0.6,0.3v0.2h2.3V43c-0.3,0-0.8,0-0.8-0.5c0-0.1,0-0.3,0.1-0.5l0.6-1.4h3.1l0.5,1.2
			c0.1,0.2,0.2,0.6,0.2,0.8c0,0.4-0.4,0.5-0.8,0.5v0.2h3V43z"/>
	</g>
	<g>
		<path class="st0" d="M288.2,43.3h-3.5V43c1.1,0,1.1-0.3,1.1-1.2v-6h-0.6c-1.3,0-1.6,0.2-1.9,1.5H283l0.1-2h6.7l0.1,2h-0.3
			c-0.2-1.3-0.6-1.5-1.9-1.5h-0.6V42c0,0.8,0.1,1,1.1,1.1V43.3z"/>
		<path class="st0" d="M303.3,43.3h-6.4V43c0.8,0,1-0.2,1-1.1v-5.3c0-0.9-0.3-1-1-1.1v-0.2h6.3l0,1.7h-0.3c-0.2-1.1-0.5-1.3-1.8-1.3
			h-1.6c-0.2,0-0.4,0-0.4,0.4v2.7h1.8c1.1,0,1.2-0.3,1.3-1.1h0.3v2.8h-0.3c-0.1-1-0.3-1.1-1.3-1.1l-1.8,0v3c0,0.5,0,0.5,1.8,0.5
			c1.5,0,2.1-0.4,2.6-1.6h0.3L303.3,43.3z"/>
		<path class="st0" d="M313.1,36.2c0-0.2,0-0.5,0.6-0.5c1.5,0,2.2,0.3,2.7,0.8c0.8,0.7,1.1,1.7,1.1,2.7c0,3.5-2.9,3.5-3.7,3.5
			c-0.6,0-0.7-0.1-0.7-0.5V36.2z M310.9,43.3h3.4c3.6,0,4.6-2.4,4.6-3.9c0-2.7-1.9-4-4.7-4h-3.2v0.2c0.9,0.1,1,0.2,1,1.1V42
			c0,0.8-0.1,1-1,1.1V43.3z"/>
	</g>
</g>
<g>
	<rect x="143.8" y="1.5" class="st1" width="186.2" height="26.3"/>
	<g>
		<path class="st0" d="M166.2,11.5c-0.9-2.6-3.3-4.5-7.5-4.5c-1.7,0-3.7,0.5-5.1,1.5c-1.3,0.9-2.8,2.5-2.8,6c0,5.2,4.1,7.3,8.4,7.3
			c4.2,0,6.7-1.7,7.7-2.5l0.6,0.4c0,0-3,3.1-9.3,3.1c-5.5,0-11.4-2.3-11.4-8.4c0-5.5,5.7-8.4,11.6-8.4c3,0,5.3,0.8,6,0.8
			c0.2,0,1.3,0,1.6-0.8h0.7l0.3,5.5H166.2z"/>
		<path class="st0" d="M169.8,22.1c2.9-0.1,3-0.6,3-2.5V9.1c0-1.8-0.5-2.1-3-2.2V6.4h9.5v0.5c-2.6,0.1-3,0.5-3,2.2v4.7h10.4V9.1
			c0-1.8-0.5-2.1-3-2.2V6.4h9.5v0.5c-2.6,0.1-3,0.5-3,2.2v10.8c0,1.6,0.3,2.1,3,2.2v0.5h-9.5v-0.5c2.9-0.1,3-0.6,3-2.5v-4.7h-10.4v5
			c0,1.6,0.3,2.1,3,2.2v0.5h-9.5V22.1z"/>
		<path class="st0" d="M213.2,22.5h-18.5v-0.5c2.2-0.1,3-0.3,3-2.2V9c0-1.9-0.8-2.1-3-2.2V6.4h18.2l0.1,3.5h-0.9
			c-0.5-2.2-1.4-2.5-5.3-2.5h-4.6c-0.7,0-1.1,0-1.1,0.8v5.4h5.3c3,0,3.4-0.6,3.8-2.3h0.8v5.6h-0.8c-0.4-2-0.9-2.3-3.8-2.3l-5.3,0
			v6.1c0,1,0,1,5.1,1c4.3,0,6-0.7,7.5-3.2h1L213.2,22.5z"/>
		<path class="st0" d="M245.2,6.9c-2.2,0.1-3,0.3-3,2.2v10.8c0,1.9,0.8,2.1,3,2.2v0.5h-9.6v-0.5c2.7-0.1,3.1-0.5,3.1-2.5V8.7h-0.1
			L230,22.5h-0.5L221,9.2h-0.1v9.7c0,2.5,0.7,3,3.2,3.1v0.5h-8v-0.5c2.6-0.1,3.3-0.5,3.3-3.1V9c0-1.9-0.7-2.1-3.2-2.2V6.4h6.8
			l7.9,12.3l7.6-12.3h6.8V6.9z"/>
		<path class="st0" d="M247.2,22.1c2.9-0.1,3.3-0.5,3.3-2.2V9c0-1.8-0.5-2.1-3.3-2.2V6.4h10.1v0.5C254.9,6.9,254,7.1,254,9v10.8
			c0,1.9,0.8,2.1,3.4,2.2v0.5h-10.1V22.1z"/>
		<path class="st0" d="M278.9,11.5C278,8.9,275.5,7,271.3,7c-1.7,0-3.7,0.5-5.1,1.5c-1.3,0.9-2.8,2.5-2.8,6c0,5.2,4.1,7.3,8.4,7.3
			c4.2,0,6.7-1.7,7.7-2.5l0.6,0.4c0,0-3,3.1-9.3,3.1c-5.5,0-11.4-2.3-11.4-8.4C259.4,9,265.1,6,271,6c3,0,5.3,0.8,6,0.8
			c0.2,0,1.3,0,1.6-0.8h0.7l0.3,5.5H278.9z"/>
		<path class="st0" d="M289.2,16.2l3.9-6.7l4,6.7H289.2z M305.9,22.1c-1.5-0.1-2-0.3-3.1-2.1l-8.5-13.8h-0.7L286.6,18
			c-0.7,1.1-1.7,2.9-2.5,3.5c-0.6,0.5-1.2,0.5-1.7,0.5v0.5h6.8v-0.5c-0.7,0-2.3,0-2.3-1c0-0.3,0.1-0.6,0.3-0.9l1.6-2.9h8.9l1.4,2.4
			c0.2,0.3,0.6,1.1,0.6,1.5c0,0.9-1.1,0.9-2.4,0.9v0.5h8.7V22.1z"/>
		<path class="st0" d="M317,6.9c-2.3,0.1-3.2,0.3-3.2,2.2v11.5c0,1,0.6,1,3.4,1c5.1,0,7.3-0.1,9.3-3.3h0.9l-1.6,4.2h-18.4v-0.5
			c2.2-0.1,3-0.3,3-2.2V9c0-1.9-0.8-2.1-3-2.2V6.4h9.6V6.9z"/>
	</g>
</g>
<g>
	<path class="st0" d="M323.1,39v-3.2h-1.2v-0.4h2.8v0.4h-1.2V39H323.1z"/>
	<path class="st0" d="M325.3,39v-3.6h0.7l0.8,2.5c0.1,0.2,0.1,0.4,0.2,0.5c0-0.1,0.1-0.3,0.2-0.6l0.9-2.5h0.6V39h-0.5v-3l-1,3h-0.4
		l-1-3.1V39H325.3z"/>
</g>
</svg>
