<?xml version="1.0" encoding="utf-8"?>
<!-- Generator: Adobe Illustrator 19.2.1, SVG Export Plug-In . SVG Version: 6.00 Build 0)  -->
<svg version="1.1" id="Layer_1" xmlns="http://www.w3.org/2000/svg" xmlns:xlink="http://www.w3.org/1999/xlink" x="0px" y="0px"
	 viewBox="0 0 125 55" style="enable-background:new 0 0 125 55;" xml:space="preserve">
<style type="text/css">
	.st0{fill:#231F20;}
	.st1{fill-rule:evenodd;clip-rule:evenodd;fill:#472D8B;}
	.st2{fill:#FFFFFF;}
</style>
<path class="st0" d="M18.6,7.4c-0.8-3.4-3.2-6.1-7.2-6.1c-1.6,0-3.5,0.7-4.9,2c-1.3,1.2-2.7,3.3-2.7,8.1c0,6.9,3.9,9.8,8,9.8
	c4,0,6.4-2.3,7.4-3.3l0.6,0.6c0,0.1-2.8,4.1-8.9,4.1C5.7,22.6,0,19.4,0,11.3C0,4,5.5,0,11.1,0c2.9,0,5,1.1,5.8,1.1
	c0.2,0,1.2,0,1.5-1.1h0.7l0.3,7.4H18.6z"/>
<path class="st0" d="M27.5,2.9c0-1,0.3-1.2,2-1.2c1.3,0,5.6,0.1,5.6,4.5c0,4.7-4.9,4.8-7.6,4.8V2.9z M42.4,21.5
	c-1.3-0.1-2.1-0.7-2.8-1.5l-6.7-8.3c1.7-0.3,5.9-1.1,5.9-5.5c0-5.1-5.4-5.7-8.3-5.7h-9v0.6c2.3,0.2,2.8,0.5,2.8,3v14.2
	c0,2.5-0.1,3.1-2.8,3.3v0.6h9.1v-0.6c-2.6-0.1-2.9-0.8-2.9-2.9v-6.4l1.8-0.1l7.8,10.1h5.3V21.5z"/>
<path class="st0" d="M53.1,21.4c-3.6,0-7-2.9-7-10.1c0-7.5,3.6-10.1,7-10.1c3.3,0,7,2.7,7,10.1C60.1,18.5,56.7,21.4,53.1,21.4z
	 M53.1,22.6c5.9,0,10.7-4.3,10.7-11.3C63.8,3.8,58.5,0,53.1,0c-5.4,0-10.7,3.8-10.7,11.3C42.4,18.3,47.2,22.6,53.1,22.6z"/>
<path class="st0" d="M94.2,1.1c-1.6,0.3-2.1,0.7-2.6,2c-2.3,6.1-4.9,13.1-6.8,19.4h-0.5c-1.1-3.4-3.8-10.3-5.2-13.9l-5,13.9h-0.5
	c-1.7-5-5.1-14.3-6.3-17.6c-1.1-2.7-1.5-3.7-3.4-3.8V0.5h8v0.6c-1.5,0.1-2.1,0.3-2.1,1.1c0,0.5,0.2,1,0.4,1.4l4.7,12.3l3.5-9.2
	L77.3,4c-1.1-2.7-1.6-2.9-3.3-2.9V0.5h8.7v0.6c-1,0-2.5,0.1-2.5,1.2c0,0.6,0.4,1.3,0.9,2.6L85.4,16l4.1-11.1C89.7,4.2,90,3.3,90,2.6
	c0-1.3-1.1-1.4-2.3-1.5V0.5h6.5V1.1z"/>
<path class="st0" d="M117.6,1.1c-2.1,0.2-3.1,0.4-3.1,4.2v17.2h-0.6l-14.4-18h-0.1v12.8c0,3.4,0.7,4.1,3.1,4.2v0.6h-7.7v-0.6
	c2.5-0.2,3.2-0.7,3.2-4.2V2.9c-1.3-1.6-1.9-1.8-3.2-1.8V0.5h5.6L113,16.2h0.1V5.3c0-3.8-0.9-4-3.1-4.2V0.5h7.7V1.1z"/>
<g>
	<path class="st0" d="M2.6,53.8c0.7,0,0.8-0.2,0.8-0.7v-3.6c0-0.6-0.1-0.7-0.8-0.7v-0.2H5v0.2c-0.6,0-0.8,0.1-0.8,0.7V53
		c0,0.6,0.2,0.7,0.8,0.7v0.2H2.6V53.8z"/>
	<path class="st0" d="M15.5,48.7c-0.5,0.1-0.8,0.1-0.8,1V54h-0.1L11,49.5h0v3.2c0,0.8,0.2,1,0.8,1v0.2H9.8v-0.2c0.6,0,0.8-0.2,0.8-1
		v-3.6c-0.3-0.4-0.5-0.4-0.8-0.4v-0.2h1.4l3.1,3.9h0v-2.7c0-0.9-0.2-1-0.8-1v-0.2h1.9V48.7z"/>
	<path class="st0" d="M25,50.2c-0.2-0.9-0.8-1.5-1.8-1.5c-0.4,0-0.9,0.2-1.2,0.5c-0.3,0.3-0.7,0.8-0.7,2c0,1.7,1,2.4,2,2.4
		c1,0,1.6-0.6,1.8-0.8l0.1,0.1c0,0-0.7,1-2.2,1c-1.3,0-2.7-0.8-2.7-2.8c0-1.8,1.4-2.8,2.8-2.8c0.7,0,1.2,0.3,1.4,0.3
		c0,0,0.3,0,0.4-0.3h0.2l0.1,1.8H25z"/>
	<path class="st0" d="M33.1,53.7c-0.9,0-1.7-0.7-1.7-2.5c0-1.9,0.9-2.5,1.7-2.5c0.8,0,1.7,0.7,1.7,2.5C34.8,53,34,53.7,33.1,53.7z
		 M33.1,54c1.5,0,2.6-1.1,2.6-2.8c0-1.9-1.3-2.8-2.6-2.8c-1.3,0-2.6,1-2.6,2.8C30.4,53,31.6,54,33.1,54z"/>
	<path class="st0" d="M42.2,49.1c0-0.2,0.1-0.3,0.5-0.3c0.3,0,1.4,0,1.4,1.1c0,1.2-1.2,1.2-1.9,1.2V49.1z M45.9,53.8
		c-0.3,0-0.5-0.2-0.7-0.4l-1.7-2.1c0.4-0.1,1.5-0.3,1.5-1.4c0-1.3-1.3-1.4-2.1-1.4h-2.2v0.2c0.6,0.1,0.7,0.1,0.7,0.7v3.5
		c0,0.6,0,0.8-0.7,0.8v0.2h2.2v-0.2c-0.6,0-0.7-0.2-0.7-0.7v-1.6l0.5,0l1.9,2.5h1.3V53.8z"/>
	<path class="st0" d="M52.2,49.1c0-0.3,0.1-0.3,0.3-0.3c0.4,0,1.5,0,1.5,1.2c0,1.2-1.1,1.2-1.4,1.2c-0.2,0-0.3,0-0.5,0V49.1z
		 M50.7,48.7c0.6,0.1,0.7,0.2,0.7,0.7v3.5c0,0.6,0,0.8-0.7,0.8v0.2h2.3v-0.2c-0.6,0-0.8-0.1-0.8-0.7v-1.5c0.2,0,0.3,0,0.5,0
		c0.9,0,1.4-0.1,1.7-0.5c0.1-0.1,0.5-0.5,0.5-1.1c0-1-1-1.5-2.1-1.5h-2.1V48.7z"/>
	<path class="st0" d="M62.5,53.7c-0.9,0-1.7-0.7-1.7-2.5c0-1.9,0.9-2.5,1.7-2.5c0.8,0,1.7,0.7,1.7,2.5C64.3,53,63.4,53.7,62.5,53.7z
		 M62.5,54c1.5,0,2.6-1.1,2.6-2.8c0-1.9-1.3-2.8-2.6-2.8c-1.3,0-2.7,1-2.7,2.8C59.9,53,61.1,54,62.5,54z"/>
	<path class="st0" d="M71.7,49.1c0-0.2,0.1-0.3,0.5-0.3c0.3,0,1.4,0,1.4,1.1c0,1.2-1.2,1.2-1.9,1.2V49.1z M75.4,53.8
		c-0.3,0-0.5-0.2-0.7-0.4L73,51.3c0.4-0.1,1.5-0.3,1.5-1.4c0-1.3-1.3-1.4-2.1-1.4h-2.2v0.2c0.6,0.1,0.7,0.1,0.7,0.7v3.5
		c0,0.6,0,0.8-0.7,0.8v0.2h2.2v-0.2c-0.6,0-0.7-0.2-0.7-0.7v-1.6l0.5,0l1.9,2.5h1.3V53.8z"/>
</g>
<g>
	<path class="st0" d="M81.3,51.8l0.9-2.2l0.9,2.2H81.3z M85.3,53.8c-0.4,0-0.5-0.1-0.7-0.7l-2-4.7h-0.2l-1.7,4
		c-0.2,0.4-0.4,1-0.6,1.2c-0.1,0.2-0.3,0.2-0.4,0.2v0.2h1.6v-0.2c-0.2,0-0.6,0-0.6-0.3c0-0.1,0-0.2,0.1-0.3l0.4-1h2.1l0.3,0.8
		c0.1,0.1,0.2,0.4,0.2,0.5c0,0.3-0.3,0.3-0.6,0.3v0.2h2.1V53.8z"/>
</g>
<g>
	<path class="st0" d="M93.5,53.9h-2.4v-0.2c0.7,0,0.8-0.2,0.8-0.8v-4.1h-0.4c-0.9,0-1.1,0.2-1.3,1H90l0-1.4h4.6l0,1.4h-0.2
		c-0.2-0.9-0.4-1-1.3-1h-0.4V53c0,0.6,0.1,0.7,0.8,0.7V53.9z"/>
	<path class="st0" d="M103.8,53.9h-4.4v-0.2c0.5,0,0.7-0.1,0.7-0.7v-3.6c0-0.6-0.2-0.7-0.7-0.7v-0.2h4.3l0,1.2h-0.2
		c-0.1-0.7-0.3-0.9-1.2-0.9h-1.1c-0.2,0-0.3,0-0.3,0.3v1.8h1.2c0.7,0,0.8-0.2,0.9-0.8h0.2V52h-0.2c-0.1-0.7-0.2-0.8-0.9-0.8l-1.2,0
		v2c0,0.3,0,0.3,1.2,0.3c1,0,1.4-0.2,1.8-1.1h0.2L103.8,53.9z"/>
	<path class="st0" d="M110.5,49.1c0-0.2,0-0.3,0.4-0.3c1,0,1.5,0.2,1.9,0.6c0.6,0.5,0.8,1.2,0.8,1.9c0,2.4-2,2.4-2.5,2.4
		c-0.4,0-0.5-0.1-0.5-0.3V49.1z M109,53.9h2.3c2.5,0,3.1-1.6,3.1-2.7c0-1.8-1.3-2.7-3.2-2.7H109v0.2c0.6,0.1,0.7,0.1,0.7,0.7V53
		c0,0.6-0.1,0.7-0.7,0.7V53.9z"/>
</g>
<rect x="1.8" y="26.7" class="st1" width="112.2" height="15.9"/>
<g>
	<path class="st2" d="M15.3,32.8c-0.5-1.5-2-2.7-4.5-2.7c-1,0-2.2,0.3-3.1,0.9C6.9,31.5,6,32.5,6,34.6c0,3.1,2.5,4.4,5.1,4.4
		c2.5,0,4-1,4.7-1.5l0.4,0.3c0,0-1.8,1.9-5.6,1.9c-3.3,0-6.9-1.4-6.9-5.1c0-3.3,3.4-5.1,7-5.1c1.8,0,3.2,0.5,3.6,0.5
		c0.1,0,0.8,0,0.9-0.5h0.4l0.2,3.3H15.3z"/>
	<path class="st2" d="M17.5,39.2c1.7-0.1,1.8-0.4,1.8-1.5v-6.4c0-1.1-0.3-1.2-1.8-1.3v-0.3h5.7V30c-1.6,0.1-1.8,0.3-1.8,1.3v2.9h6.3
		v-2.9c0-1.1-0.3-1.2-1.8-1.3v-0.3h5.7V30c-1.6,0.1-1.8,0.3-1.8,1.3v6.5c0,1,0.2,1.2,1.8,1.3v0.3h-5.7v-0.3c1.7-0.1,1.8-0.4,1.8-1.5
		v-2.9h-6.3v3c0,1,0.2,1.2,1.8,1.3v0.3h-5.7V39.2z"/>
	<path class="st2" d="M43.7,39.4H32.5v-0.3c1.3-0.1,1.8-0.2,1.8-1.3v-6.5c0-1.2-0.5-1.2-1.8-1.3v-0.3h11l0.1,2.1H43
		c-0.3-1.3-0.9-1.5-3.2-1.5h-2.8c-0.4,0-0.7,0-0.7,0.5V34h3.2c1.8,0,2-0.3,2.3-1.4h0.5V36h-0.5c-0.2-1.2-0.6-1.4-2.3-1.4l-3.2,0v3.7
		c0,0.6,0,0.6,3.1,0.6c2.6,0,3.6-0.4,4.5-1.9h0.6L43.7,39.4z"/>
	<path class="st2" d="M62.9,30c-1.3,0.1-1.8,0.2-1.8,1.3v6.5c0,1.1,0.5,1.3,1.8,1.3v0.3h-5.8v-0.3c1.6-0.1,1.9-0.3,1.9-1.5v-6.6h0
		l-5.2,8.4h-0.3l-5.1-8h0v5.9c0,1.5,0.4,1.8,1.9,1.9v0.3h-4.8v-0.3c1.6-0.1,2-0.3,2-1.9v-6c0-1.1-0.4-1.3-2-1.3v-0.3h4.1l4.8,7.4
		l4.6-7.4h4.1V30z"/>
	<path class="st2" d="M64.1,39.2c1.8,0,2-0.3,2-1.3v-6.5c0-1.1-0.3-1.3-2-1.3v-0.3h6.1V30c-1.5,0-2,0.1-2,1.3v6.5
		c0,1.1,0.5,1.3,2,1.3v0.3h-6.1V39.2z"/>
	<path class="st2" d="M83.2,32.8c-0.5-1.5-2-2.7-4.5-2.7c-1,0-2.2,0.3-3.1,0.9c-0.8,0.6-1.7,1.5-1.7,3.6c0,3.1,2.4,4.4,5,4.4
		c2.5,0,4-1,4.7-1.5l0.4,0.3c0,0-1.8,1.9-5.6,1.9c-3.3,0-6.9-1.4-6.9-5.1c0-3.3,3.4-5.1,7-5.1c1.8,0,3.2,0.5,3.6,0.5
		c0.1,0,0.8,0,0.9-0.5h0.4l0.2,3.3H83.2z"/>
	<path class="st2" d="M89.4,35.6l2.4-4l2.4,4H89.4z M99.5,39.2c-0.9,0-1.2-0.2-1.9-1.3l-5.1-8.3h-0.4l-4.3,7.2
		c-0.4,0.6-1,1.7-1.5,2.1c-0.4,0.3-0.7,0.3-1,0.3v0.3h4.1v-0.3c-0.4,0-1.4,0-1.4-0.6c0-0.2,0.1-0.4,0.2-0.6l1-1.7h5.4l0.8,1.4
		c0.1,0.2,0.4,0.7,0.4,0.9c0,0.5-0.7,0.6-1.4,0.6v0.3h5.3V39.2z"/>
	<path class="st2" d="M106.2,30c-1.4,0.1-1.9,0.2-1.9,1.3v7c0,0.6,0.4,0.6,2.1,0.6c3.1,0,4.4-0.1,5.6-2h0.5l-1,2.6h-11.1v-0.3
		c1.3-0.1,1.8-0.2,1.8-1.3v-6.5c0-1.2-0.5-1.2-1.8-1.3v-0.3h5.8V30z"/>
</g>
<g>
	<path class="st0" d="M120.4,3.4V0.7h-1V0.4h2.4v0.4h-1v2.6H120.4z"/>
	<path class="st0" d="M122.1,3.4v-3h0.6l0.7,2.1c0.1,0.2,0.1,0.3,0.1,0.4c0-0.1,0.1-0.3,0.2-0.5l0.7-2.1h0.5v3h-0.4V0.9l-0.9,2.5
		h-0.4l-0.9-2.6v2.6H122.1z"/>
</g>
</svg>
